HIERARCHY
ROOT Hips
{
	OFFSET -0.001795 -0.223333 0.028219
	CHANNELS 6 Xposition Yposition Zposition Zrotation Yrotation Xrotation 
	JOINT LeftUpLeg
	{
		OFFSET 0.069520 -0.091406 -0.006815
		CHANNELS 3 Zrotation Yrotation Xrotation
		JOINT LeftLeg
		{
			OFFSET 0.034277 -0.375199 -0.004496
			CHANNELS 3 Zrotation Yrotation Xrotation
			JOINT LeftFoot
			{
				OFFSET -0.013596 -0.397961 -0.043693
				CHANNELS 3 Zrotation Yrotation Xrotation
				JOINT LeftToe
				{
					OFFSET 0.026358 -0.055791 0.119288
					CHANNELS 3 Zrotation Yrotation Xrotation
					End Site
					{
						OFFSET 0.000000 0.000000 0.000000
					}
				}
			}
		}
	}
	JOINT RightUpLeg
	{
		OFFSET -0.067670 -0.090522 -0.004320
		CHANNELS 3 Zrotation Yrotation Xrotation
		JOINT RightLeg
		{
			OFFSET -0.038290 -0.382569 -0.008850
			CHANNELS 3 Zrotation Yrotation Xrotation
			JOINT RightFoot
			{
				OFFSET 0.015774 -0.398415 -0.042312
				CHANNELS 3 Zrotation Yrotation Xrotation
				JOINT RightToe
				{
					OFFSET -0.025372 -0.048144 0.123348
					CHANNELS 3 Zrotation Yrotation Xrotation
					End Site
					{
						OFFSET 0.000000 0.000000 0.000000
					}
				}
			}
		}
	}
	JOINT Spine
	{
		OFFSET -0.002533 0.108963 -0.026696
		CHANNELS 3 Zrotation Yrotation Xrotation
		JOINT Spine1
		{
			OFFSET 0.005487 0.135180 0.001092
			CHANNELS 3 Zrotation Yrotation Xrotation
			JOINT Spine2
			{
				OFFSET 0.001457 0.052922 0.025425
				CHANNELS 3 Zrotation Yrotation Xrotation
				JOINT Neck
				{
					OFFSET -0.002778 0.213870 -0.042857
					CHANNELS 3 Zrotation Yrotation Xrotation
					JOINT Head
					{
						OFFSET 0.005152 0.064970 0.051349
						CHANNELS 3 Zrotation Yrotation Xrotation
						End Site
						{
							OFFSET 0.000000 0.000000 0.000000
						}
					}
				}
				JOINT LeftShoulder
				{
					OFFSET 0.078845 0.121749 -0.034090
					CHANNELS 3 Zrotation Yrotation Xrotation
					JOINT LeftArm
					{
						OFFSET 0.090977 0.030469 -0.008868
						CHANNELS 3 Zrotation Yrotation Xrotation
						JOINT LeftForeArm
						{
							OFFSET 0.259612 -0.012772 -0.027456
							CHANNELS 3 Zrotation Yrotation Xrotation
							JOINT LeftHand
							{
								OFFSET 0.249234 0.008986 -0.001171
								CHANNELS 3 Zrotation Yrotation Xrotation
								End Site
								{
									OFFSET 0.000000 0.000000 0.000000
								}
							}
						}
					}
				}
				JOINT RightShoulder
				{
					OFFSET -0.081759 0.118833 -0.038615
					CHANNELS 3 Zrotation Yrotation Xrotation
					JOINT RightArm
					{
						OFFSET -0.096012 0.032551 -0.009143
						CHANNELS 3 Zrotation Yrotation Xrotation
						JOINT RightForeArm
						{
							OFFSET -0.253742 -0.013329 -0.021401
							CHANNELS 3 Zrotation Yrotation Xrotation
							JOINT RightHand
							{
								OFFSET -0.255298 0.007772 -0.005559
								CHANNELS 3 Zrotation Yrotation Xrotation
								End Site
								{
									OFFSET 0.000000 0.000000 0.000000
								}
							}
						}
					}
				}
			}
		}
	}
}
MOTION
Frames: 8
Frame Time: 0.050000
0.000000 0.945357 0.000000 -1.801689 7.193711 10.690914 10.670155 -0.639362 -14.478046 -5.552552 0.533034 4.361710 11.494886 23.001928 20.835641 0.000000 0.000000 0.000000 -1.562417 1.642199 -20.925836 3.477162 -0.402416 4.974116 -1.088833 -7.296016 17.955490 0.000000 0.000000 0.000000 -0.129124 -1.752564 28.242557 4.107275 -0.351762 -21.158190 -1.121340 -3.223497 26.622213 -4.422676 4.075846 -19.552857 0.000000 0.000000 0.000000 -11.320082 -23.198997 10.285009 -52.398409 -45.317116 12.680552 -1.453077 -35.332652 2.309046 0.000000 0.000000 0.000000 -0.051957 25.823044 9.172757 56.592628 48.435444 17.535995 -4.478412 33.691628 0.248243 0.000000 0.000000 0.000000 
-0.000406 0.944663 0.000267 -2.209952 6.531519 11.044801 11.103698 -0.590044 -13.815206 -5.549020 0.530013 2.769422 11.931443 23.455547 20.955615 0.000000 0.000000 0.000000 -2.064086 1.616384 -21.194211 5.179637 -0.665265 4.508473 -0.744233 -6.887239 18.190475 0.000000 0.000000 0.000000 0.404479 -1.792630 27.309133 4.099071 -0.381951 -20.985544 -1.152761 -2.922282 26.222128 -5.846117 4.971680 -19.617133 0.000000 0.000000 0.000000 -12.112588 -21.245362 9.518334 -52.915600 -43.694502 12.023044 -3.072339 -37.537997 3.081702 0.000000 0.000000 0.000000 -1.747092 26.259527 8.945817 59.128459 48.958851 19.172541 -5.705651 34.361698 -0.112092 0.000000 0.000000 0.000000 
-0.000297 0.944258 0.000670 -2.240084 6.138991 10.784502 11.071084 -0.568419 -13.201063 -5.524539 0.529084 2.405096 12.148876 23.672180 20.927612 0.000000 0.000000 0.000000 -1.941649 1.642966 -21.069607 5.057538 -0.642946 4.791309 -0.586950 -6.634923 17.923317 0.000000 0.000000 0.000000 1.068996 -1.953026 27.253004 3.306573 -0.156476 -21.644611 -1.463661 -2.430676 26.098896 -5.387990 4.740261 -18.337945 0.000000 0.000000 0.000000 -12.297475 -20.717876 9.225577 -51.698674 -42.978646 11.229738 -4.631463 -37.397494 3.549948 0.000000 0.000000 0.000000 -0.130273 25.019474 8.901206 59.751564 48.915457 19.425365 -4.019396 33.054809 0.379798 0.000000 0.000000 0.000000 
-0.000154 0.945477 0.001364 -2.454865 6.196889 10.629075 11.269488 -0.554381 -12.757712 -5.475218 0.518320 1.941164 12.039564 23.524666 21.172792 0.000000 0.000000 0.000000 -1.904490 1.629160 -20.784869 5.472099 -0.709110 4.626472 -0.634615 -6.798612 18.340243 0.000000 0.000000 0.000000 1.012999 -1.876153 26.512344 3.796984 -0.312123 -21.070915 -1.692842 -2.494501 26.210659 -5.905586 5.079939 -18.276189 0.000000 0.000000 0.000000 -11.440384 -20.511552 8.974462 -53.477109 -42.086176 11.376830 -4.257825 -38.635777 3.571241 0.000000 0.000000 0.000000 -1.675814 24.425165 8.341012 60.333655 48.873326 19.732280 -3.689408 34.405256 0.491185 0.000000 0.000000 0.000000 
0.000180 0.945512 0.002300 -2.242056 7.171829 9.986544 11.007503 -0.588060 -12.391840 -5.356382 0.494892 2.272647 11.432025 22.868679 20.624639 0.000000 0.000000 0.000000 -2.025834 1.525215 -20.013391 5.194334 -0.684852 4.733209 -0.997663 -7.231982 18.342812 0.000000 0.000000 0.000000 1.129998 -1.946685 26.290127 3.584162 -0.262040 -20.614873 -1.637032 -2.964774 25.930982 -5.631419 4.898615 -18.385696 0.000000 0.000000 0.000000 -11.099686 -20.061786 8.665873 -53.041713 -41.513283 10.957757 -4.856617 -39.543108 3.854890 0.000000 0.000000 0.000000 -1.141457 23.940428 8.272620 60.468871 48.390046 19.497812 -3.444948 34.422325 0.561210 0.000000 0.000000 0.000000 
0.000649 0.946469 0.003083 -2.057884 7.711132 9.916908 10.815965 -0.613749 -12.422305 -5.350920 0.487295 2.354370 11.052026 22.452384 20.654284 0.000000 0.000000 0.000000 -2.109474 1.477150 -19.747258 4.846799 -0.635328 4.635262 -1.071593 -7.294474 18.549948 0.000000 0.000000 0.000000 1.124000 -1.969214 26.201329 3.492485 -0.200871 -21.142809 -1.529141 -2.749918 26.330398 -5.074532 4.610333 -18.897391 0.000000 0.000000 0.000000 -10.910679 -20.058841 8.540412 -52.312384 -40.711990 10.233433 -5.217773 -41.053250 4.130492 0.000000 0.000000 0.000000 -0.738134 23.469029 8.208087 59.567839 47.711754 18.720264 -2.528179 35.631680 0.898756 0.000000 0.000000 0.000000 
0.001399 0.947084 0.003724 -2.015577 8.255135 9.828963 10.536099 -0.643533 -12.512078 -4.954869 0.439008 2.553988 10.711330 22.087422 20.520105 0.000000 0.000000 0.000000 -2.265141 1.431284 -19.688568 5.028204 -0.680738 4.951227 -1.423981 -7.783951 18.525827 0.000000 0.000000 0.000000 1.218689 -1.955429 25.451102 3.443489 -0.196978 -20.710353 -1.657652 -2.626556 26.148058 -4.607498 4.368586 -18.933411 0.000000 0.000000 0.000000 -11.021909 -19.662540 8.279073 -51.543353 -40.162897 9.705312 -4.991142 -41.447655 4.041830 0.000000 0.000000 0.000000 0.113147 23.311098 8.353827 59.354872 46.717393 18.081739 -2.553769 36.228786 0.943283 0.000000 0.000000 0.000000 
0.002478 0.947755 0.004243 -1.956921 8.685810 10.083413 10.114084 -0.686387 -12.823835 -4.376254 0.372144 2.533323 10.444519 21.810922 20.505740 0.000000 0.000000 0.000000 -2.348466 1.409656 -19.773695 4.792174 -0.643961 4.743304 -1.407326 -7.739217 18.894858 0.000000 0.000000 0.000000 1.268717 -1.945039 24.927864 3.266249 -0.140956 -20.727685 -1.366303 -2.393454 26.241489 -4.331137 4.251891 -18.284529 0.000000 0.000000 0.000000 -11.278197 -19.650528 8.221104 -50.431179 -39.916826 9.216795 -4.329743 -41.217268 3.712226 0.000000 0.000000 0.000000 0.239504 23.049019 8.319730 59.380791 46.190560 17.860163 -2.238834 36.623307 1.085948 0.000000 0.000000 0.000000 
